<svg width="1525" height="377" viewBox="0 0 1525 377" fill="none" xmlns="http://www.w3.org/2000/svg">
<path fill-rule="evenodd" clip-rule="evenodd" d="M258.887 376.211H251.415C238.272 375.354 225.565 369.954 215.784 360.196C213.501 357.915 209.944 353.614 209.114 350.507H206.778C203.715 361.978 184.111 375.018 162.214 376.213H155.731C138.858 375.259 121.467 366.71 109.803 344.668C84.2027 344.668 58.3381 326.425 48.8603 302.794C42.6948 287.424 42.2056 279.99 44.3757 265.22L27.692 252.692C23.0218 248.022 19.1158 242.516 15.3954 236.947C-4.10034 207.755 -3.5712 168.724 15.3802 139.25C21.2173 130.174 27.692 123.3 36.0016 116.64C38.5126 114.628 41.774 112.737 44.3743 110.996C44.0184 106.694 43.2061 107.661 43.2061 101.648C43.2061 68.8197 64.0762 45.3919 87.7487 36.3649C90.973 35.1335 94.7127 33.8814 98.6022 33.197C103.245 32.3806 106.964 32.9084 110.021 30.5939C112.206 28.9405 125.033 0 160.043 0C192.579 0 203.946 22.775 207.944 25.7052C210.954 23.4979 213.626 18.4786 216.518 15.5842C239.428 -7.35023 280.978 -5.07974 301.1 23.6821C309.341 35.462 303.007 29.8737 319.225 33.5983C322.812 34.4216 325.647 35.3465 328.983 36.692C352.584 46.2056 372.683 69.2101 372.683 101.648C372.683 107.661 371.872 106.694 371.515 110.996C376.531 113.65 381.806 118.054 386.362 121.851C389.017 124.065 390.613 125.994 392.555 128.509C399.057 136.933 426.069 176.423 403.058 176.423C390.175 176.423 394.854 151.141 372.207 133.667C362.442 126.132 359.337 124.003 346.538 121.949C328.378 119.036 317.768 127.017 317.768 109.826C317.768 98.6343 350.405 103.434 353.988 105.152C353.988 82.7492 345.936 66.4201 328.671 56.8626C325.518 55.1171 322.878 53.7358 319.87 52.8095C316.298 51.7127 313.694 51.6468 310.76 50.2394C310.76 60.0333 310.07 72.1114 301.111 73.1078C287.249 74.6471 292.067 56.1822 292.067 53.7441C292.067 31.1478 275.086 18.6931 253.511 18.6931C234.102 18.6931 217.293 36.6783 217.293 56.0819V129.689C217.293 133.87 225.016 134.478 228.963 136.712C249.357 148.25 257.991 176.172 245.597 196.548C242.156 202.204 240.622 204.898 234.819 207.967C234.819 227.041 240.053 254.194 217.294 254.703V322.469C217.294 334.853 227.99 349.519 239.833 354.84C265.607 366.42 292.069 346.905 292.069 324.804C292.069 314.859 287.739 303.773 300.247 303.773C310.039 303.773 310.762 315.975 310.762 325.972C323.563 322.991 333.866 318.505 341.437 309.914C350.503 299.628 353.992 288.083 353.992 272.228C342.259 272.489 317.772 278.925 317.772 264.049C317.772 244.39 362.712 272.758 388.299 222.413C392.244 214.649 394.773 199.789 401.894 199.789C429.184 199.789 396.873 251.8 371.517 265.218C371.821 268.872 372.685 269.368 372.685 273.396C372.685 293.158 366.087 309.929 353.726 323.369C342.945 335.091 323.323 344.666 306.088 344.666C301.763 352.843 295.662 360.953 287.904 366.204C278.978 372.245 268.944 375.553 258.889 376.21L258.887 376.211ZM121.207 54.8202C121.207 49.4148 122.06 44.8023 123.791 40.6585C125.521 36.5134 128.121 32.8548 131.612 29.3501L131.651 29.3075C138.53 22.43 148.214 18.7549 158.149 18.7686C168.078 18.7824 178.262 22.4754 186.147 30.3327L186.199 30.3822C189.044 33.2286 192.268 37.5387 194.563 42.426C196.395 46.3293 197.639 50.6077 197.639 54.8202V130.765C197.639 134.267 195.88 134.84 192.502 135.941C188.795 137.147 182.851 139.085 174.884 147.372C167.213 155.348 163.436 166.12 163.659 176.926C163.877 187.594 167.995 198.295 176.107 206.377C176.685 206.954 177.184 207.424 177.606 207.821C178.777 208.925 179.409 209.519 179.79 210.523C180.204 211.621 180.202 213.007 180.197 216L180.196 217.14C180.198 218.919 180.123 220.986 180.043 223.161C179.544 236.688 178.883 254.553 196.828 254.952L197.642 254.968V323.542C197.642 327.426 196.244 331.977 194.288 336.232C191.854 341.527 188.542 346.395 185.994 348.943C184.863 350.075 183.094 351.461 181.2 352.771C179.218 354.143 177.094 355.436 175.42 356.269C170.252 358.832 164.709 360.007 159.211 360.007C151.982 360.007 144.823 357.972 138.703 354.391C132.576 350.804 127.488 345.661 124.406 339.455C122.367 335.345 121.208 330.771 121.208 325.878C121.208 323.787 121.403 321.604 121.592 319.485C121.765 317.561 121.931 315.691 121.931 313.936C121.931 309.195 120.561 305.678 113.858 305.678C109.412 305.678 107.009 308.491 105.716 312.453C104.347 316.64 104.173 322.111 104.173 327.047V328.091L103.154 327.853C88.7341 324.496 77.7761 318.633 70.408 309.711C63.0344 300.785 59.2851 288.833 59.2851 273.303V272.457L60.1303 272.477C62.7224 272.534 63.9346 272.809 65.1386 273.081C66.3852 273.362 67.6207 273.642 70.6293 273.642C72.8187 273.642 75.0988 273.7 77.2552 273.755C79.0735 273.8 80.8011 273.844 82.5906 273.844C91.1544 273.844 96.6712 272.625 96.6712 263.957C96.6712 257.558 87.6305 257.332 77.7321 257.085C74.1807 256.997 70.5221 256.905 67.1081 256.531C50.5151 254.711 36.5816 243.579 27.6164 228.241C23.5194 221.227 20.4572 213.33 18.6554 205.042C16.8563 196.759 16.3148 188.081 17.2563 179.499C19.4814 159.195 29.9927 139.45 51.7232 126.75C60.5344 121.602 70.6155 121.739 78.7354 121.849C81.7715 121.892 84.5285 121.929 86.8086 121.676C91.5667 121.148 94.589 118.977 95.8905 116.352C96.4527 115.219 96.6959 114 96.6176 112.795C96.5406 111.591 96.1434 110.396 95.4274 109.313C93.697 106.698 90.1099 104.723 84.6508 104.723L83.0029 104.716C76.0073 104.7 65.2705 104.672 60.4712 106.974L59.2865 107.543V106.229C59.2865 97.5445 60.1812 90.4265 62.1452 84.3325C64.1202 78.2054 67.1699 73.1271 71.4677 68.5476C83.3919 55.8428 90.8878 53.9928 97.0024 52.4879C99.141 51.9601 101.106 51.4763 102.988 50.5734L104.174 50.003V51.3183C104.174 56.0544 104.324 61.229 105.473 65.3865C106.571 69.364 108.593 72.4248 112.32 73.2329C118.246 74.5221 120.658 71.3981 121.513 67.4605C122.442 63.1889 121.652 57.9483 121.337 55.8496C121.26 55.3384 121.21 54.9975 121.21 54.8202H121.207ZM206.778 149.55C233.07 149.55 239.838 179.231 226.261 192.402C223.156 195.413 216.123 198.451 216.123 209.138V236.009H199.768V209.138C199.768 192.618 184.737 197.259 182.909 175.847C181.702 161.719 195.171 149.55 206.778 149.55Z" fill="#102A43"/>
<path fill-rule="evenodd" clip-rule="evenodd" d="M267.34 126.766L268.885 139.027C269.465 143.623 266.2 147.837 261.604 148.417C257.008 148.997 252.792 145.731 252.212 141.135L248.72 113.431C248.676 113.174 248.642 112.915 248.621 112.658L248.14 108.845C248.051 108.136 248.363 107.48 248.969 107.101L278.126 88.8794C282.053 86.4261 287.279 87.6507 289.722 91.5787C292.167 95.5067 290.947 100.718 287.026 103.169L274.174 111.201C293.062 122.637 307.06 140.115 314.825 160.818C319.331 172.828 321.619 185.667 321.575 198.492C321.532 211.309 319.173 224.114 314.387 236.013C304.465 260.681 285.481 278.751 260.626 288.065C256.282 289.694 251.433 287.468 249.815 283.123C248.198 278.779 250.416 273.944 254.754 272.318C275.106 264.691 290.649 249.956 298.773 229.75C302.762 219.834 304.735 209.162 304.77 198.48C304.807 187.659 302.879 176.822 299.078 166.69C292.915 150.264 282.032 136.248 267.338 126.764L267.34 126.766Z" fill="#102A43"/>
<path fill-rule="evenodd" clip-rule="evenodd" d="M125.319 41.2938C123.675 45.2315 122.865 49.6364 122.865 54.8206C122.865 54.8769 122.909 55.1683 122.973 55.6026C123.303 57.7865 124.122 63.2401 123.13 67.8085C122.089 72.6065 119.158 76.4122 111.966 74.8523C107.51 73.8847 105.131 70.3704 103.876 65.8239C102.774 61.8354 102.547 57.0649 102.517 52.5762C100.859 53.2373 99.1852 53.6496 97.3943 54.0908C91.4927 55.5462 84.2593 57.3302 72.6691 69.6791C68.5404 74.0771 65.6116 78.9548 63.715 84.8358C61.9035 90.4626 61.028 97.0267 60.9483 104.988C66.4473 103.02 76.369 103.045 82.999 103.062L84.6469 103.063C90.7313 103.06 94.794 105.355 96.8047 108.396C97.6843 109.726 98.1736 111.201 98.2685 112.689C98.3633 114.18 98.0651 115.687 97.3724 117.082C95.8372 120.175 92.3737 122.721 86.9875 123.32C84.6304 123.581 81.8143 123.543 78.7123 123.5C70.8013 123.392 60.9799 123.257 52.5577 128.179C31.3344 140.582 21.0718 159.855 18.8989 179.671C17.9794 188.07 18.5086 196.572 20.2719 204.691C22.0353 212.805 25.0342 220.537 29.046 227.402C37.7583 242.312 51.2534 253.126 67.2801 254.883C70.657 255.253 74.2661 255.344 77.7681 255.432C88.5144 255.7 98.3276 255.946 98.3276 263.956C98.3276 274.079 92.1621 275.502 82.5881 275.502C81.0199 275.502 79.1658 275.457 77.2128 275.407C75.1842 275.355 73.0416 275.3 70.6254 275.3C67.4547 275.3 66.1174 274.999 64.7732 274.694C63.7851 274.471 62.7941 274.247 60.9428 274.159C61.0789 288.869 64.6963 300.198 71.6809 308.656C78.6326 317.073 88.9501 322.687 102.513 325.998C102.541 321.22 102.794 316.053 104.137 311.944C105.652 307.309 108.509 304.019 113.854 304.019C121.933 304.019 123.587 308.244 123.587 313.938C123.587 315.689 123.413 317.631 123.234 319.629C123.051 321.675 122.862 323.781 122.862 325.88C122.862 330.513 123.959 334.838 125.885 338.725C128.818 344.635 133.678 349.539 139.534 352.967C145.4 356.4 152.265 358.35 159.206 358.35C164.462 358.35 169.756 357.23 174.68 354.786C176.287 353.988 178.338 352.741 180.256 351.414C182.061 350.164 183.743 348.845 184.816 347.771C187.255 345.333 190.432 340.653 192.78 335.545C194.646 331.488 195.978 327.175 195.978 323.542V256.574C177.186 255.638 177.868 237.152 178.384 223.103C178.461 221.02 178.535 219.039 178.535 217.14L178.538 216.001C178.544 213.217 178.545 211.93 178.235 211.108C177.991 210.46 177.457 209.959 176.466 209.024C176.041 208.623 175.537 208.15 174.936 207.551C166.507 199.155 162.228 188.037 162.003 176.958C161.772 165.728 165.703 154.527 173.688 146.223C181.943 137.637 188.13 135.621 191.985 134.365C194.61 133.511 195.976 133.064 195.976 130.764V54.8192C195.976 50.8623 194.797 46.8216 193.061 43.1231C190.856 38.4255 187.758 34.2845 185.024 31.5535L184.972 31.5041C177.414 23.971 167.653 20.432 158.144 20.4182C148.637 20.4059 139.381 23.9119 132.819 30.476L132.781 30.5186C129.441 33.868 126.959 37.3576 125.316 41.2925L125.319 41.2938ZM145.902 249.448L144.356 237.187C143.777 232.591 147.041 228.377 151.639 227.797C156.235 227.217 160.45 230.483 161.029 235.08L164.522 262.781C164.566 263.038 164.599 263.297 164.618 263.557L165.101 267.368C165.189 268.078 164.878 268.733 164.272 269.112L135.114 287.334C131.188 289.787 125.962 288.566 123.517 284.635C121.072 280.707 122.293 275.495 126.215 273.045L139.067 265.014C120.179 253.576 106.181 236.097 98.4155 215.396C93.9103 203.386 91.6192 190.547 91.6632 177.721C91.7071 164.905 94.0656 152.101 98.8526 140.2C108.774 115.533 127.759 97.4637 152.612 88.1481C156.956 86.5195 161.805 88.746 163.423 93.0904C165.04 97.4348 162.822 102.27 158.485 103.896C138.133 111.524 122.592 126.257 114.466 146.463C110.477 156.381 108.505 167.053 108.468 177.733C108.432 188.554 110.36 199.391 114.162 209.523C120.323 225.95 131.206 239.967 145.902 249.449V249.448Z" fill="#102A43"/>
<path d="M452.727 27.3426H459.472L480.959 68.5152L502.213 27.3426H508.956V82.2384H503.938L503.86 34.8715L482.372 76.3561H479.391L457.826 34.8715V82.2384H452.728L452.727 27.3426ZM550.222 27.421H586.925V32.2836H555.634V51.8906H583.63V56.7532H555.634V77.3786H587.945V82.2412H550.222V27.421ZM664.971 27.421H670.303V82.2398H664.579L630.622 35.813V82.2398H625.21V27.421H630.935L664.971 73.8478V27.421ZM703.883 27.3426H745.525V32.2836H727.409V82.2398H721.998V32.2836H703.883V27.3426ZM798.71 26.9509C803.939 26.9509 808.735 28.1934 813.101 30.6755C817.466 33.159 820.93 36.5194 823.491 40.7525C826.053 44.9884 827.336 49.6421 827.336 54.7122C827.336 59.7837 826.053 64.4621 823.491 68.7502C820.93 73.0369 817.466 76.4358 813.101 78.9454C808.735 81.455 803.938 82.7099 798.71 82.7099C793.48 82.7099 788.685 81.455 784.319 78.9454C779.954 76.4358 776.49 73.0369 773.928 68.7502C771.366 64.4621 770.084 59.7823 770.084 54.7122C770.084 49.6407 771.366 44.9884 773.928 40.7525C776.49 36.518 779.954 33.159 784.319 30.6755C788.685 28.1934 793.482 26.9509 798.71 26.9509ZM798.788 31.8135C794.605 31.8135 790.738 32.8333 787.181 34.8729C783.626 36.9125 780.803 39.6819 778.711 43.1852C776.621 46.6899 775.576 50.5313 775.576 54.7136C775.576 58.8972 776.622 62.7634 778.711 66.3203C780.803 69.8758 783.626 72.6851 787.181 74.7494C790.738 76.8151 794.606 77.8473 798.788 77.8473C802.918 77.8473 806.749 76.8151 810.278 74.7494C813.806 72.6851 816.617 69.8758 818.707 66.3203C820.799 62.7634 821.845 58.8958 821.845 54.7136C821.845 50.5299 820.799 46.6885 818.707 43.1852C816.617 39.6833 813.806 36.9125 810.278 34.8729C806.749 32.8333 802.918 31.8135 798.788 31.8135ZM899.421 82.2398L887.578 64.3604C885.905 64.4635 884.626 64.5171 883.736 64.5171H868.68V82.2412H863.268V27.4223H883.736C890.585 27.4223 895.878 29.0043 899.616 32.1667C903.354 35.3292 905.224 39.8125 905.224 45.6165C905.224 50.1657 904.125 53.9549 901.931 56.9896C899.736 60.0215 896.598 62.138 892.52 63.3406L905.694 82.2412L899.421 82.2398ZM883.736 59.6531C888.966 59.6531 892.99 58.4643 895.813 56.0852C898.636 53.7061 900.048 50.2688 900.048 45.7732C900.048 41.3806 898.637 38.0354 895.813 35.7346C892.99 33.4339 888.965 32.2836 883.736 32.2836H868.68V59.6531H883.736ZM943.979 27.421H949.391V82.2398H943.979V27.421ZM1031.59 82.2398L1025.08 67.6534H994.655L988.224 82.2398H982.422L1007.12 27.421H1012.77L1037.47 82.2398H1031.59ZM996.772 62.7909H1022.96L1009.79 33.148L996.772 62.7909Z" fill="#102A43"/>
<path d="M453.512 120.841H482.028V230.076H453.512V120.841ZM577.861 120.841H604.352V230.076H579.42L529.866 164.785V230.076H503.221V120.841H528.308L578.018 186.6L577.861 120.841ZM616.196 120.841H709.846V144.371H677.124V230.075H648.606V144.371H616.196V120.841ZM721.379 120.841H807.55V143.591H749.895V164.004H801.941V186.599L749.895 186.755V207.325H809.109V230.075H721.379V120.84V120.841ZM898.866 174.29H923.488V217.766C917.67 222.025 910.528 225.479 902.061 228.129C893.595 230.777 885.57 232.101 877.986 232.101C866.973 232.101 857.027 229.634 848.144 224.698C839.262 219.764 832.276 212.986 827.186 204.363C822.095 195.74 819.55 186.079 819.55 175.378C819.55 164.783 822.172 155.2 827.418 146.63C832.666 138.058 839.884 131.332 849.079 126.45C858.272 121.567 868.531 119.126 879.854 119.126C887.957 119.126 896.061 120.606 904.163 123.567C912.266 126.527 919.123 130.5 924.732 135.488L908.525 155.435C904.578 151.695 900.033 148.734 894.891 146.552C889.748 144.371 884.685 143.278 879.697 143.278C873.881 143.278 868.634 144.68 863.959 147.485C859.284 150.292 855.596 154.134 852.895 159.018C850.195 163.901 848.842 169.353 848.842 175.378C848.842 181.508 850.193 187.04 852.895 191.975C855.596 196.909 859.336 200.78 864.113 203.585C868.892 206.39 874.19 207.792 880.008 207.792C885.514 207.792 891.799 206.026 898.862 202.495V174.29H898.866ZM1007.94 230.076L992.051 199.845H991.428H970.859V230.076H942.343V120.841H991.428C1005.87 120.841 1017.06 124.191 1025.01 130.892C1032.96 137.592 1036.93 147.021 1036.93 159.174C1036.93 167.382 1035.27 174.473 1031.94 180.446C1028.62 186.419 1023.79 191.067 1017.45 194.392L1040.2 230.075H1007.95L1007.94 230.076ZM970.858 177.095H991.584C997.4 177.095 1001.89 175.639 1005.06 172.731C1008.23 169.823 1009.82 165.615 1009.82 160.109C1009.82 154.811 1008.23 150.734 1005.06 147.877C1001.89 145.019 997.4 143.591 991.584 143.591H970.858V177.094V177.095ZM1135.41 230.076L1127.93 210.754H1080.72L1073.08 230.076H1043.79L1090.69 120.841H1119.99L1165.8 230.076H1135.41H1135.41ZM1089.29 188.938H1119.52L1104.56 149.981L1089.29 188.938ZM1268.33 211.688C1263.24 217.091 1257.19 221.584 1250.18 225.168C1243.17 228.753 1236.03 230.959 1228.75 231.791L1226.26 238.804C1230.63 239.74 1233.85 241.323 1235.92 243.558C1238 245.79 1239.04 248.413 1239.04 251.426C1239.04 256.412 1237.14 260.178 1233.35 262.723C1229.56 265.269 1224.81 266.54 1219.09 266.54C1213.38 266.54 1207.67 265.501 1201.95 263.424L1206.32 250.959C1208.71 251.892 1211.36 252.361 1214.26 252.361C1216.13 252.361 1217.64 252.049 1218.78 251.425C1219.92 250.802 1220.5 249.969 1220.5 248.93C1220.5 247.788 1219.72 246.904 1218.16 246.282C1216.6 245.659 1214.63 245.346 1212.24 245.346H1208.5L1213.02 231.321C1203.88 229.869 1195.72 226.543 1188.55 221.349C1181.39 216.154 1175.77 209.558 1171.72 201.559C1167.67 193.56 1165.65 184.78 1165.65 175.224C1165.65 164.628 1168.19 155.069 1173.28 146.552C1178.37 138.033 1185.36 131.332 1194.24 126.45C1203.12 121.567 1213.07 119.126 1224.08 119.126C1232.19 119.126 1240.18 120.814 1248.08 124.191C1255.97 127.567 1262.67 132.165 1268.18 137.981L1251.66 157.928C1248.13 153.461 1243.92 149.903 1239.04 147.254C1234.16 144.604 1229.33 143.279 1224.55 143.279C1219.04 143.279 1214.03 144.657 1209.51 147.408C1204.99 150.162 1201.43 153.954 1198.84 158.784C1196.24 163.614 1194.94 168.99 1194.94 174.912C1194.94 180.833 1196.24 186.21 1198.84 191.041C1201.43 195.872 1204.99 199.664 1209.51 202.417C1214.03 205.168 1219.04 206.545 1224.55 206.545C1229.01 206.545 1233.69 205.403 1238.57 203.118C1243.46 200.831 1247.82 197.715 1251.66 193.766L1268.33 211.687L1268.33 211.688ZM1359.49 230.076L1352.01 210.754H1304.8L1297.16 230.076H1267.87L1314.77 120.841H1344.07L1389.88 230.076H1359.49H1359.49ZM1313.37 188.938H1343.6L1328.64 149.981L1313.37 188.938ZM1357.62 87.9617C1357.62 96.0651 1356.43 102.195 1354.04 106.35C1351.65 110.506 1347.8 112.584 1342.51 112.584C1340.01 112.584 1337.73 112.194 1335.65 111.414C1333.57 110.635 1331.13 109.519 1328.33 108.065C1325.42 106.403 1323.24 105.57 1321.78 105.57C1318.87 105.57 1317.42 107.752 1317.42 112.115H1301.68C1301.68 104.013 1302.87 97.8587 1305.26 93.6517C1307.65 89.4433 1311.55 87.3391 1316.95 87.3391C1319.34 87.3391 1321.63 87.7555 1323.81 88.5857C1325.99 89.4172 1328.38 90.5098 1330.97 91.8595C1334.09 93.5211 1336.27 94.354 1337.52 94.354C1340.53 94.354 1342.04 92.2237 1342.04 87.9645H1357.62L1357.62 87.9617ZM1448.78 119.127C1459.9 119.127 1469.95 121.568 1478.93 126.451C1487.92 131.335 1494.98 138.035 1500.13 146.553C1505.27 155.07 1507.84 164.629 1507.84 175.226C1507.84 185.924 1505.27 195.586 1500.13 204.209C1494.98 212.832 1487.92 219.636 1478.93 224.621C1469.95 229.609 1459.9 232.101 1448.78 232.101C1437.67 232.101 1427.62 229.634 1418.63 224.698C1409.64 219.764 1402.58 212.961 1397.44 204.286C1392.29 195.612 1389.72 185.924 1389.72 175.224C1389.72 164.628 1392.29 155.069 1397.44 146.552C1402.58 138.033 1409.64 131.332 1418.63 126.45C1427.62 121.567 1437.67 119.126 1448.78 119.126V119.127ZM1449.09 143.281C1443.69 143.281 1438.68 144.683 1434.06 147.488C1429.43 150.294 1425.77 154.163 1423.07 159.099C1420.37 164.033 1419.02 169.46 1419.02 175.381C1419.02 181.408 1420.4 186.886 1423.15 191.821C1425.9 196.757 1429.56 200.651 1434.13 203.508C1438.7 206.365 1443.69 207.793 1449.09 207.793C1454.5 207.793 1459.46 206.365 1463.97 203.508C1468.49 200.651 1472.05 196.756 1474.65 191.821C1477.25 186.886 1478.54 181.408 1478.54 175.381C1478.54 169.46 1477.25 164.031 1474.65 159.099C1472.05 154.163 1468.49 150.294 1463.97 147.488C1459.46 144.683 1454.49 143.281 1449.09 143.281Z" fill="#102A43"/>
<path d="M453.512 275.683H517.289V291.707H495.005V350.073H475.583V291.707H453.512V275.683ZM569.821 350.075L558.996 329.486H558.572H544.564V350.075H525.144V275.683H558.572C568.404 275.683 576.029 277.965 581.441 282.528C586.854 287.091 589.56 293.512 589.56 301.788C589.56 307.379 588.427 312.208 586.162 316.274C583.899 320.343 580.61 323.508 576.294 325.771L591.788 350.073H569.821V350.075ZM544.564 313.994H558.676C562.638 313.994 565.698 313.005 567.856 311.023C570.015 309.041 571.094 306.175 571.094 302.426C571.094 298.818 570.016 296.043 567.856 294.097C565.698 292.151 562.638 291.179 558.676 291.179H544.564V313.994ZM656.629 350.075L651.534 336.916H619.38L614.179 350.075H594.229L626.172 275.683H646.122L677.321 350.075H656.629ZM625.216 322.059H645.804L635.616 295.528L625.216 322.059ZM734.837 275.683H752.878V350.075H735.899L702.153 305.611V350.075H684.007V275.683H701.092L734.944 320.466L734.837 275.683ZM818.672 298.076C814.711 295.74 810.483 293.831 805.992 292.345C801.497 290.859 797.73 290.116 794.689 290.116C792.285 290.116 790.392 290.558 789.011 291.443C787.633 292.328 786.941 293.618 786.941 295.316C786.941 296.945 787.542 298.306 788.746 299.402C789.949 300.499 791.433 301.384 793.202 302.056C794.971 302.728 797.589 303.594 801.055 304.655C806.22 306.141 810.482 307.627 813.842 309.114C817.204 310.6 820.086 312.881 822.493 315.957C824.898 319.034 826.1 323.05 826.1 328.002C826.1 332.954 824.792 337.182 822.174 340.684C819.556 344.185 815.966 346.82 811.404 348.589C806.841 350.358 801.764 351.243 796.176 351.243C790.02 351.243 783.883 350.163 777.763 348.005C771.644 345.847 766.356 342.894 761.899 339.144L769.433 323.968C773.184 327.293 777.623 330.017 782.751 332.139C787.88 334.261 792.427 335.322 796.389 335.322C799.289 335.322 801.57 334.793 803.232 333.732C804.896 332.671 805.726 331.114 805.726 329.062C805.726 327.364 805.108 325.95 803.87 324.818C802.633 323.685 801.076 322.784 799.201 322.111C797.326 321.439 794.69 320.644 791.295 319.723C786.202 318.309 781.992 316.876 778.668 315.426C775.341 313.976 772.495 311.783 770.124 308.846C767.755 305.91 766.569 302.001 766.569 297.12C766.569 292.521 767.788 288.488 770.229 285.022C772.67 281.556 776.137 278.886 780.629 277.011C785.12 275.135 790.34 274.198 796.282 274.198C801.658 274.198 806.965 274.958 812.2 276.479C817.435 278 822.035 280.035 825.997 282.58L818.673 298.075L818.672 298.076ZM868.019 275.683C875.801 275.683 882.683 277.24 888.66 280.353C894.638 283.465 899.291 287.833 902.615 293.458C905.941 299.082 907.603 305.539 907.603 312.826C907.603 320.114 905.922 326.588 902.563 332.246C899.203 337.906 894.461 342.293 888.344 345.407C882.224 348.519 875.202 350.076 867.278 350.076H835.973V275.685H868.019V275.683ZM868.551 334.37C872.302 334.37 875.625 333.484 878.526 331.716C881.426 329.947 883.691 327.436 885.317 324.181C886.946 320.927 887.758 317.212 887.758 313.038C887.758 308.794 886.892 305.043 885.159 301.788C883.426 298.534 881.037 296.006 877.995 294.202C874.952 292.397 871.485 291.496 867.595 291.496H855.391V334.37H868.55H868.551ZM917.261 275.683H936.681V350.075H917.261V275.683ZM1002.37 298.076C998.406 295.74 994.178 293.831 989.687 292.345C985.193 290.859 981.426 290.116 978.384 290.116C975.98 290.116 974.088 290.558 972.706 291.443C971.328 292.328 970.637 293.618 970.637 295.316C970.637 296.945 971.237 298.306 972.441 299.402C973.644 300.499 975.128 301.384 976.897 302.056C978.666 302.728 981.284 303.594 984.75 304.655C989.915 306.141 994.177 307.627 997.537 309.114C1000.9 310.6 1003.78 312.881 1006.19 315.957C1008.59 319.034 1009.8 323.05 1009.8 328.002C1009.8 332.954 1008.49 337.182 1005.87 340.684C1003.25 344.185 999.661 346.82 995.099 348.589C990.536 350.358 985.459 351.243 979.871 351.243C973.715 351.243 967.579 350.163 961.458 348.005C955.34 345.847 950.051 342.894 945.594 339.144L953.128 323.968C956.879 327.293 961.318 330.017 966.446 332.139C971.575 334.261 976.122 335.322 980.084 335.322C982.984 335.322 985.266 334.793 986.927 333.732C988.592 332.671 989.422 331.114 989.422 329.062C989.422 327.364 988.803 325.95 987.565 324.818C986.328 323.685 984.771 322.784 982.896 322.111C981.021 321.439 978.385 320.644 974.991 319.723C969.897 318.309 965.687 316.876 962.363 315.426C959.037 313.976 956.19 311.783 953.82 308.846C951.45 305.91 950.264 302.001 950.264 297.12C950.264 292.521 951.483 288.488 953.924 285.022C956.365 281.556 959.833 278.886 964.324 277.011C968.816 275.135 974.035 274.198 979.977 274.198C985.354 274.198 990.66 274.958 995.895 276.479C1001.13 278 1005.73 280.035 1009.69 282.58L1002.37 298.075L1002.37 298.076ZM1073.47 300.94C1071.06 297.897 1068.2 295.476 1064.87 293.671C1061.55 291.868 1058.26 290.965 1055 290.965C1051.25 290.965 1047.84 291.904 1044.76 293.778C1041.69 295.653 1039.26 298.234 1037.5 301.524C1035.73 304.815 1034.84 308.475 1034.84 312.509C1034.84 316.541 1035.73 320.202 1037.5 323.491C1039.26 326.782 1041.69 329.364 1044.76 331.24C1047.84 333.115 1051.25 334.052 1055 334.052C1058.05 334.052 1061.23 333.274 1064.56 331.718C1067.88 330.161 1070.85 328.039 1073.47 325.351L1084.82 337.555C1080.79 341.8 1076 345.178 1070.44 347.69C1064.89 350.201 1059.39 351.457 1053.94 351.457C1046.59 351.457 1039.94 349.759 1033.99 346.363C1028.05 342.968 1023.38 338.332 1019.99 332.462C1016.59 326.589 1014.89 320.01 1014.89 312.723C1014.89 305.506 1016.62 298.997 1020.09 293.196C1023.56 287.394 1028.32 282.831 1034.37 279.507C1040.41 276.181 1047.19 274.519 1054.69 274.519C1060.21 274.519 1065.65 275.668 1071.03 277.967C1076.41 280.267 1080.97 283.399 1084.72 287.359L1073.47 300.942L1073.47 300.94ZM1093.1 275.683H1112.52V350.075H1093.1V275.683ZM1159.64 275.683C1169.12 275.683 1176.47 277.965 1181.71 282.528C1186.95 287.091 1189.56 293.512 1189.56 301.788C1189.56 310.562 1186.95 317.371 1181.71 322.217C1176.48 327.065 1169.12 329.486 1159.64 329.486H1146.37V350.075H1126.95V275.683H1159.64ZM1158.68 313.993C1162.64 313.993 1165.7 313.003 1167.86 311.021C1170.02 309.04 1171.1 306.174 1171.1 302.425C1171.1 298.817 1170.02 296.042 1167.86 294.096C1165.7 292.15 1162.64 291.178 1158.68 291.178H1146.37V313.993H1158.68ZM1199.11 275.683H1218.54V333.52H1250.05V350.075H1199.11V275.683ZM1258.86 275.683H1278.28V350.075H1258.86V275.683ZM1343.55 275.683H1361.59V350.075H1344.61L1310.86 305.611V350.075H1292.71V275.683H1309.8L1343.65 320.466L1343.55 275.683ZM1430.78 350.075L1425.68 336.916H1393.53L1388.33 350.075H1368.38L1400.32 275.683H1420.27L1451.47 350.075H1430.78ZM1399.36 322.059H1419.95L1409.76 295.528L1399.36 322.059ZM1502.83 350.075L1492.01 329.486H1491.58H1477.58V350.075H1458.16V275.683H1491.58C1501.42 275.683 1509.04 277.965 1514.45 282.528C1519.87 287.091 1522.57 293.512 1522.57 301.788C1522.57 307.379 1521.44 312.208 1519.17 316.274C1516.91 320.343 1513.62 323.508 1509.31 325.771L1524.8 350.073H1502.83V350.075ZM1477.58 313.994H1491.69C1495.65 313.994 1498.71 313.005 1500.87 311.023C1503.03 309.041 1504.11 306.175 1504.11 302.426C1504.11 298.818 1503.03 296.043 1500.87 294.097C1498.71 292.151 1495.65 291.179 1491.69 291.179H1477.58V313.994Z" fill="#102A43"/>
</svg>
