<svg width="450" height="450" viewBox="0 0 450 450" fill="none" xmlns="http://www.w3.org/2000/svg">
<rect y="0.819824" width="449.18" height="449.18" rx="224.59" fill="#102A43"/>
<path fill-rule="evenodd" clip-rule="evenodd" d="M277.617 172.309L278.94 182.813C279.437 186.75 276.639 190.36 272.702 190.857C268.764 191.354 265.153 188.556 264.656 184.619L261.664 160.885C261.627 160.664 261.597 160.442 261.579 160.222L261.167 156.955C261.091 156.348 261.358 155.786 261.877 155.461L286.857 139.85C290.221 137.748 294.698 138.798 296.792 142.163C298.886 145.528 297.841 149.993 294.482 152.092L283.471 158.974C299.653 168.771 311.646 183.745 318.298 201.482C322.158 211.772 324.119 222.77 324.081 233.758C324.044 244.738 322.023 255.709 317.923 265.904C309.423 287.037 293.158 302.518 271.865 310.498C268.143 311.893 263.989 309.986 262.603 306.264C261.217 302.542 263.117 298.399 266.833 297.007C284.269 290.473 297.585 277.849 304.545 260.538C307.964 252.042 309.653 242.899 309.684 233.748C309.716 224.478 308.064 215.193 304.807 206.513C299.527 192.44 290.206 180.433 277.617 172.309Z" fill="white"/>
<path fill-rule="evenodd" clip-rule="evenodd" d="M263.973 386.015H270.375C278.989 385.452 287.587 382.617 295.234 377.442C301.881 372.943 307.107 365.994 310.813 358.99C325.578 358.99 342.389 350.786 351.625 340.743C362.215 329.229 367.869 314.861 367.869 297.93C367.869 295.981 367.632 294.997 367.38 293.945C367.185 293.136 366.981 292.286 366.868 290.925C388.591 279.429 416.272 234.87 392.892 234.87C388.534 234.87 386.183 241.368 383.964 247.505C383.076 249.958 382.21 252.353 381.245 254.252C367.832 280.643 348.212 281.787 335.003 282.558C326.623 283.047 320.823 283.385 320.823 289.922C320.823 300.057 334.088 298.646 344.576 297.531C347.278 297.243 349.795 296.975 351.854 296.93C351.854 310.513 348.864 320.404 341.097 329.216C334.611 336.576 325.784 340.42 314.817 342.974C314.817 334.409 314.198 323.955 305.809 323.955C297.35 323.955 297.88 329.873 298.478 336.556C298.638 338.34 298.803 340.178 298.803 341.973C298.803 360.908 276.132 377.627 254.05 367.705C243.904 363.147 234.741 350.582 234.741 339.972V281.916C251.231 281.547 250.568 264.851 249.971 249.823C249.862 247.082 249.755 244.396 249.755 241.876C254.598 239.314 255.97 237.058 258.764 232.463C258.838 232.341 258.913 232.218 258.989 232.093C269.607 214.636 262.21 190.714 244.738 180.83C243.658 180.219 242.248 179.75 240.83 179.278C237.806 178.271 234.74 177.251 234.74 174.813V111.752C234.74 95.1283 249.14 79.7199 265.769 79.7199C284.253 79.7199 298.8 90.3902 298.8 109.749C298.8 110.037 298.722 110.585 298.618 111.313C297.967 115.871 296.309 127.476 306.549 126.338C314.224 125.485 314.815 115.137 314.815 106.746C316.342 107.479 317.764 107.787 319.332 108.127C320.345 108.347 321.419 108.579 322.621 108.948C325.197 109.742 327.459 110.925 330.16 112.421C344.951 120.609 351.85 134.598 351.85 153.791C348.781 152.319 320.819 148.208 320.819 157.796C320.819 167.976 325.162 167.853 332.983 167.63C336.476 167.531 340.663 167.412 345.467 168.182C356.433 169.941 359.093 171.765 367.459 178.221C377.68 186.108 381.404 195.851 384.253 203.306C386.813 210.002 388.667 214.851 393.89 214.851C413.604 214.851 390.462 181.019 384.891 173.802C383.227 171.648 381.86 169.994 379.586 168.098L379.51 168.035C375.624 164.797 371.135 161.057 366.865 158.798C366.991 157.289 367.181 156.537 367.362 155.821C367.624 154.789 367.866 153.832 367.866 150.79C367.866 122.999 350.647 103.291 330.427 95.1401C327.569 93.9873 325.14 93.1949 322.067 92.4896C314.608 90.7766 312.718 91.3629 311.474 90.7122C310.401 90.1508 309.81 88.6686 306.54 83.9941C289.3 59.3531 253.703 57.4079 234.076 77.0565C233.021 78.1118 232.001 79.4968 230.978 80.8855C229.598 82.7599 228.212 84.6411 226.731 85.7274C226.108 85.2711 225.277 84.253 224.166 82.8925C219.166 76.7683 208.5 63.7051 185.692 63.7051C160.211 63.7051 148.446 81.5993 144.335 87.8526C143.607 88.9601 143.119 89.7025 142.837 89.9156C141.009 91.2995 138.905 91.4973 136.449 91.7283C135.385 91.8283 134.256 91.9345 133.054 92.1458C129.722 92.7322 126.518 93.8048 123.756 94.8599C103.475 102.594 85.5951 122.665 85.5951 150.79C85.5951 153.831 85.8376 154.788 86.099 155.82C86.2805 156.536 86.471 157.288 86.596 158.798C85.9014 159.263 85.1518 159.741 84.3838 160.23C82.6884 161.31 80.9033 162.447 79.4228 163.634C72.3038 169.34 66.7567 175.228 61.756 183.004C45.5198 208.255 45.0665 241.694 61.7689 266.704C64.9564 271.475 68.3027 276.192 72.3038 280.193L86.5972 290.926C84.7379 303.58 85.1571 309.949 90.4392 323.117C98.5591 343.362 120.718 358.991 142.651 358.991C152.643 377.875 167.543 385.199 181.998 386.016H187.553C206.312 384.993 223.108 373.821 225.731 363.994H227.733C228.444 366.655 231.491 370.34 233.447 372.294C241.827 380.654 252.713 385.28 263.973 386.015ZM242.423 228.541C254.055 217.257 248.256 191.828 225.731 191.828C215.787 191.828 204.248 202.254 205.282 214.358C206.1 223.942 210.006 227.434 213.55 230.601C216.789 233.496 219.726 236.12 219.726 242.879V265.9H233.738V242.879C233.738 235.447 237.707 232.333 240.624 230.045C241.301 229.513 241.922 229.027 242.423 228.541ZM172.727 267.383L174.051 277.888C161.461 269.764 152.137 257.756 146.859 243.683C143.602 235.003 141.95 225.719 141.981 216.448C142.012 207.298 143.702 198.155 147.119 189.658C154.081 172.347 167.395 159.725 184.831 153.19C188.547 151.797 190.448 147.654 189.062 143.932C187.676 140.21 183.522 138.303 179.8 139.698C158.508 147.679 142.243 163.159 133.743 184.293C129.642 194.488 127.621 205.458 127.584 216.438C127.546 227.426 129.509 238.426 133.368 248.715C140.021 266.45 152.014 281.425 168.196 291.224L157.185 298.104C153.825 300.203 152.779 304.668 154.874 308.033C156.969 311.401 161.445 312.448 164.809 310.346L189.789 294.735C190.309 294.41 190.575 293.848 190.499 293.241L190.086 289.976C190.07 289.753 190.041 289.531 190.004 289.31L187.011 265.578C186.515 261.64 182.904 258.842 178.966 259.339C175.027 259.836 172.231 263.446 172.727 267.383Z" fill="white"/>
</svg>
